<?xml version="1.0" encoding="utf-8"?>
<!-- Generator: Adobe Illustrator 17.1.0, SVG Export Plug-In . SVG Version: 6.00 Build 0)  -->
<!DOCTYPE svg PUBLIC "-//W3C//DTD SVG 1.1//EN" "http://www.w3.org/Graphics/SVG/1.1/DTD/svg11.dtd">
<svg version="1.1" id="Layer_1" xmlns="http://www.w3.org/2000/svg" xmlns:xlink="http://www.w3.org/1999/xlink" x="0px" y="0px"
	 viewBox="0 0 216 216.003" enable-background="new 0 0 216 216.003" xml:space="preserve">
<g>
	<polygon fill="#EF4836" points="152.152,84.792 152.152,66.293 76.992,66.293 76.992,155.174 96.069,155.174 96.069,119.164 
		138.337,119.164 138.337,100.658 96.069,100.658 96.069,84.792 	"/>
	<g>
		<path fill="#EF4836" d="M190.913,72.184c4.764,10.989,7.422,23.098,7.422,35.822c0,49.813-40.525,90.333-90.336,90.333
			c-49.81,0-90.338-40.519-90.338-90.333c0-49.813,40.528-90.341,90.338-90.341c18.191,0,35.134,5.425,49.327,14.713V11.972
			C142.527,4.339,125.766,0,108,0C48.448,0,0,48.451,0,108.006c0,59.547,48.448,107.997,108,107.997
			c59.549,0,108-48.451,108-107.997c0-12.556-2.177-24.606-6.133-35.822H190.913z"/>
	</g>
</g>
<g>
</g>
<g>
</g>
<g>
</g>
<g>
</g>
<g>
</g>
<g>
</g>
</svg>
