<svg height="32" width="32" viewBox="0 0 216 216.003" version="1.1" xmlns="http://www.w3.org/2000/svg" xmlns:dc="http://purl.org/dc/elements/1.1/">
<polygon fill="#fdf9ed" points="152.152,84.792 152.152,66.293 76.992,66.293 76.992,155.174 96.069,155.174 96.069,119.164
138.337,119.164 138.337,100.658 96.069,100.658 96.069,84.792 	"/>
<path fill="#fdf9ed" d="M190.913,72.184c4.764,10.989,7.422,23.098,7.422,35.822c0,49.813-40.525,90.333-90.336,90.333
c-49.81,0-90.338-40.519-90.338-90.333c0-49.813,40.528-90.341,90.338-90.341c18.191,0,35.134,5.425,49.327,14.713V11.972
C142.527,4.339,125.766,0,108,0C48.448,0,0,48.451,0,108.006c0,59.547,48.448,107.997,108,107.997
c59.549,0,108-48.451,108-107.997c0-12.556-2.177-24.606-6.133-35.822H190.913z"/>
</svg>
