<svg height="592" width="592" viewBox="0 0 592.13 592.13" version="1.1" xmlns="http://www.w3.org/2000/svg" xmlns:dc="http://purl.org/dc/elements/1.1/">
<path fill="#fdf9ed" d="M539.582,153.562c24.59,41.852,38.725,90.552,38.725,142.503c0,155.63-126.612,282.243-282.242,282.243
c-155.631,0-282.243-126.613-282.243-282.243S140.434,13.82,296.065,13.82c46.426,0,90.246,11.309,128.917,31.258V29.645
C385.985,10.69,342.26,0,296.065,0C132.814,0,0,132.815,0,296.065C0,459.315,132.814,592.13,296.065,592.13
c163.25,0,296.064-132.815,296.064-296.065c0-51.637-13.329-100.201-36.672-142.503H539.582z"/>
<path fill="#fdf9ed" d="M296.066,4.22C135.141,4.22,4.223,135.138,4.223,296.063s130.919,291.843,291.843,291.843
s291.843-130.919,291.843-291.843c0-48.208-12.077-95.961-34.957-138.281h-6.107c23.362,42.22,35.685,89.873,35.685,138.281
c0,157.958-128.507,286.465-286.465,286.465S9.601,454.021,9.601,296.063S138.108,9.599,296.066,9.599
c43.703,0,85.614,9.638,124.693,28.641v-5.943C381.552,13.667,339.605,4.22,296.066,4.22z"/>
</svg>
