<svg height="32" width="288" viewBox="0 0 287.972 31.921" version="1.1" xmlns="http://www.w3.org/2000/svg" xmlns:dc="http://purl.org/dc/elements/1.1/">
<polygon fill="#fdf9ed" points="287.972,0.424 287.972,5.953 273.606,5.953 273.606,12.57 286.639,12.57 286.639,17.951
273.606,17.951 273.606,25.158 287.972,25.158 287.972,30.737 267.386,30.737 267.386,0.424 	"/>
<path fill="#fdf9ed" d="M55.349,10.237c1.098,1.639,1.741,3.607,1.741,5.723c0,5.683-4.623,10.308-10.307,10.308
c-5.683,0-10.307-4.625-10.307-10.308c0-5.684,4.623-10.308,10.307-10.308c1.852,0,3.588,0.499,5.092,1.357V0.848
c-1.602-0.542-3.31-0.848-5.092-0.848c-8.799,0-15.959,7.159-15.959,15.96s7.159,15.96,15.959,15.96
c8.799,0,15.958-7.159,15.958-15.96c0-2.019-0.392-3.944-1.078-5.723H55.349z"/>
<path fill="#fdf9ed" d="M197.921,21.683c-1.098-1.639-1.741-3.607-1.741-5.723c0-5.684,4.623-10.308,10.307-10.308
c5.684,0,10.307,4.624,10.307,10.308s-4.623,10.308-10.307,10.308c-1.852,0-3.588-0.499-5.092-1.358v6.163
c1.602,0.542,3.31,0.848,5.092,0.848c8.799,0,15.959-7.159,15.959-15.96S215.285,0,206.486,0c-8.799,0-15.958,7.159-15.958,15.96
c0,2.019,0.392,3.944,1.078,5.723H197.921z"/>
<polygon fill="#fdf9ed" points="0,30.737 0,0.424 25.482,0.424 25.482,5.954 6.268,5.954 6.268,13.656 19.153,13.656
19.153,19.135 6.268,19.135 6.268,30.737 	"/>
<path fill="#fdf9ed" d="M77.986,14.248h5.825c3.159,0,4.789-1.678,4.789-4.196c0-2.568-1.63-4.246-4.789-4.246h-5.825V14.248z
M77.986,19.432v11.306h-6.269V0.424h12.489c6.368,0,10.614,3.407,10.614,9.628c0,4.838-2.666,7.899-6.911,8.935l7.998,11.751
h-7.109l-7.503-11.306H77.986z"/>
<path fill="#fdf9ed" d="M105.27,18.543V0.424h6.318v17.477c0,5.184,2.271,7.652,6.27,7.652c3.999,0,6.269-2.468,6.269-7.652V0.424
h6.318v18.118c0,8.344-4.984,12.688-12.587,12.688C110.305,31.231,105.27,26.886,105.27,18.543"/>
<polygon fill="#fdf9ed" points="156.94,24.221 148.203,11.187 148.203,30.738 142.033,30.738 142.033,0.425 147.908,0.425
157.089,14.742 166.221,0.425 171.996,0.425 171.996,30.738 165.778,30.738 165.778,11.187 157.138,24.221 	"/>
<polygon fill="#fdf9ed" points="257.473,30.737 252.487,30.737 238.171,10.546 238.171,30.737 232.1,30.737 232.1,0.424
238.023,0.424 251.401,19.58 251.401,0.424 257.473,0.424 	"/>
</svg>
