<svg height="32" width="130" viewBox="0 0 346.512 85.465" version="1.1" xmlns="http://www.w3.org/2000/svg" xmlns:dc="http://purl.org/dc/elements/1.1/">
<polygon fill="#fdf9ed" points="312.372,28.186 312.372,33.715 298.006,33.715 298.006,40.332 311.039,40.332 311.039,45.713
298.006,45.713 298.006,52.92 312.372,52.92 312.372,58.499 291.786,58.499 291.786,28.186 	"/>
<path fill="#fdf9ed" d="M79.748,37.999c1.098,1.639,1.741,3.607,1.741,5.723c0,5.683-4.623,10.308-10.307,10.308
c-5.683,0-10.307-4.625-10.307-10.308c0-5.684,4.623-10.308,10.307-10.308c1.852,0,3.588,0.499,5.092,1.357V28.61
c-1.602-0.542-3.31-0.848-5.092-0.848c-8.799,0-15.959,7.159-15.959,15.96s7.159,15.96,15.959,15.96
c8.799,0,15.958-7.159,15.958-15.96c0-2.019-0.392-3.944-1.078-5.723H79.748z"/>
<path fill="#fdf9ed" d="M222.32,49.445c-1.098-1.639-1.741-3.607-1.741-5.723c0-5.684,4.623-10.308,10.307-10.308
c5.683,0,10.307,4.624,10.307,10.308s-4.623,10.308-10.307,10.308c-1.852,0-3.588-0.499-5.092-1.358v6.163
c1.602,0.542,3.31,0.848,5.092,0.848c8.799,0,15.959-7.159,15.959-15.96s-7.159-15.96-15.959-15.96
c-8.799,0-15.958,7.159-15.958,15.96c0,2.019,0.392,3.944,1.078,5.723H222.32z"/>
<polygon fill="#fdf9ed" points="24.4,58.499 24.4,28.186 49.882,28.186 49.882,33.715 30.668,33.715 30.668,41.417 43.553,41.417
43.553,46.897 30.668,46.897 30.668,58.499 	"/>
<path fill="#fdf9ed" d="M102.385,42.01h5.825c3.159,0,4.789-1.678,4.789-4.196c0-2.568-1.63-4.246-4.789-4.246h-5.825V42.01z
M102.385,47.194V58.5h-6.269V28.186h12.488c6.368,0,10.614,3.407,10.614,9.628c0,4.838-2.666,7.899-6.911,8.935l7.998,11.751
h-7.11l-7.503-11.306H102.385z"/>
<path fill="#fdf9ed" d="M129.67,46.305V28.186h6.318v17.477c0,5.184,2.271,7.652,6.27,7.652c3.999,0,6.268-2.468,6.268-7.652
V28.186h6.318v18.118c0,8.344-4.984,12.688-12.587,12.688C134.705,58.993,129.67,54.648,129.67,46.305"/>
<polygon fill="#fdf9ed" points="181.34,51.983 172.602,38.949 172.602,58.5 166.432,58.5 166.432,28.187 172.307,28.187
181.488,42.504 190.62,28.187 196.396,28.187 196.396,58.5 190.177,58.5 190.177,38.949 181.538,51.983 	"/>
<polygon fill="#fdf9ed" points="281.872,58.499 276.887,58.499 262.571,38.308 262.571,58.499 256.499,58.499 256.499,28.186
262.423,28.186 275.801,47.341 275.801,28.186 281.872,28.186 	"/>
</svg>
